<svg viewBox="0 0 900 540" xmlns="http://www.w3.org/2000/svg" font-family="-apple-system, BlinkMacSystemFont, 'Segoe UI', Roboto, Helvetica, Arial, sans-serif">
  <defs>
    <marker id="ar" markerWidth="10" markerHeight="10" refX="8" refY="3" orient="auto" markerUnits="strokeWidth">
      <path d="M0,0 L8,3 L0,6 Z" fill="#94a3b8"/>
    </marker>
  </defs>

  <rect x="1" y="1" width="898" height="538" rx="16" fill="#ffffff" stroke="#e2e8f0" stroke-width="2"/>

  <text x="40" y="58" font-size="34" font-weight="700" fill="#0f172a">Canonify</text>
  <text x="42" y="88" font-size="15" fill="#475569">Canonical-pattern docs your AI assistant routes to at every lifecycle gate.</text>

  <text x="140" y="144" font-size="12" font-weight="700" fill="#6366f1" text-anchor="middle" letter-spacing="1">CREATE / REGISTER</text>
  <text x="760" y="125" font-size="12" font-weight="700" fill="#6366f1" text-anchor="middle" letter-spacing="1">READ / ROUTE</text>

  <rect x="360" y="232" width="180" height="96" rx="12" fill="#eef2ff" stroke="#6366f1" stroke-width="2.5"/>
  <text x="450" y="268" text-anchor="middle" font-size="16" font-weight="700" fill="#3730a3" font-family="ui-monospace, SFMono-Regular, Menlo, monospace">CANONIFY.md</text>
  <text x="450" y="290" text-anchor="middle" font-size="12" fill="#6366f1">the manifest</text>
  <text x="450" y="312" text-anchor="middle" font-size="11" fill="#64748b">indexes your docs/*.md canons</text>

  <rect x="40" y="156" width="200" height="44" rx="10" fill="#eef2ff" stroke="#c7d2fe" stroke-width="1.5"/>
  <text x="54" y="180" font-size="13" font-weight="700" fill="#4338ca" font-family="ui-monospace, Menlo, monospace">/canonify:kickoff</text>
  <text x="54" y="194" font-size="11" fill="#6b7280">onboard a fresh repo</text>

  <rect x="40" y="220" width="200" height="44" rx="10" fill="#eef2ff" stroke="#c7d2fe" stroke-width="1.5"/>
  <text x="54" y="244" font-size="13" font-weight="700" fill="#4338ca" font-family="ui-monospace, Menlo, monospace">/canonify:create-canon</text>
  <text x="54" y="258" font-size="11" fill="#6b7280">author a canon</text>

  <rect x="40" y="284" width="200" height="44" rx="10" fill="#eef2ff" stroke="#c7d2fe" stroke-width="1.5"/>
  <text x="54" y="308" font-size="13" font-weight="700" fill="#4338ca" font-family="ui-monospace, Menlo, monospace">/canonify:update-canon</text>
  <text x="54" y="322" font-size="11" fill="#6b7280">revise an existing canon</text>

  <rect x="40" y="348" width="200" height="44" rx="10" fill="#eef2ff" stroke="#c7d2fe" stroke-width="1.5"/>
  <text x="54" y="372" font-size="13" font-weight="700" fill="#4338ca" font-family="ui-monospace, Menlo, monospace">/canonify:import-canon</text>
  <text x="54" y="386" font-size="11" fill="#6b7280">import from another repo</text>

  <rect x="660" y="150" width="200" height="46" rx="10" fill="#f1f5f9" stroke="#cbd5e1" stroke-width="1.5"/>
  <text x="674" y="173" font-size="13" font-weight="700" fill="#334155" font-family="ui-monospace, Menlo, monospace">/canonify:plan</text>
  <text x="674" y="189" font-size="11" fill="#64748b">orient - breadth</text>

  <rect x="660" y="214" width="200" height="46" rx="10" fill="#f1f5f9" stroke="#cbd5e1" stroke-width="1.5"/>
  <text x="674" y="237" font-size="13" font-weight="700" fill="#334155" font-family="ui-monospace, Menlo, monospace">/canonify:build</text>
  <text x="674" y="253" font-size="11" fill="#64748b">route + load - depth</text>

  <rect x="660" y="278" width="200" height="46" rx="10" fill="#f1f5f9" stroke="#cbd5e1" stroke-width="1.5"/>
  <text x="674" y="301" font-size="13" font-weight="700" fill="#334155" font-family="ui-monospace, Menlo, monospace">/canonify:commit</text>
  <text x="674" y="317" font-size="11" fill="#64748b">audit the diff</text>

  <rect x="660" y="342" width="200" height="46" rx="10" fill="#f1f5f9" stroke="#cbd5e1" stroke-width="1.5"/>
  <text x="674" y="365" font-size="13" font-weight="700" fill="#334155" font-family="ui-monospace, Menlo, monospace">/canonify:debug</text>
  <text x="674" y="381" font-size="11" fill="#64748b">route an error -&gt; fix</text>

  <rect x="350" y="408" width="200" height="48" rx="10" fill="#ccfbf1" stroke="#14b8a6" stroke-width="1.5"/>
  <text x="364" y="432" font-size="13" font-weight="700" fill="#0f766e" font-family="ui-monospace, Menlo, monospace">/canonify:doctor</text>
  <text x="364" y="448" font-size="11" fill="#0d9488">refs + staleness check</text>

  <path d="M240,178 C300,178 318,248 356,250" fill="none" stroke="#94a3b8" stroke-width="2" marker-end="url(#ar)"/>
  <path d="M240,242 C300,242 322,270 356,272" fill="none" stroke="#94a3b8" stroke-width="2" marker-end="url(#ar)"/>
  <path d="M240,306 C300,306 322,294 356,294" fill="none" stroke="#94a3b8" stroke-width="2" marker-end="url(#ar)"/>
  <path d="M240,370 C300,370 318,318 356,316" fill="none" stroke="#94a3b8" stroke-width="2" marker-end="url(#ar)"/>

  <path d="M540,254 C590,238 604,180 656,173" fill="none" stroke="#94a3b8" stroke-width="2" marker-end="url(#ar)"/>
  <path d="M540,276 C592,276 604,238 656,237" fill="none" stroke="#94a3b8" stroke-width="2" marker-end="url(#ar)"/>
  <path d="M540,300 C590,316 604,300 656,301" fill="none" stroke="#94a3b8" stroke-width="2" marker-end="url(#ar)"/>
  <path d="M540,316 C590,332 606,360 656,365" fill="none" stroke="#94a3b8" stroke-width="2" marker-end="url(#ar)"/>

  <path d="M450,406 L450,332" fill="none" stroke="#94a3b8" stroke-width="2" marker-end="url(#ar)"/>
  <text x="460" y="372" font-size="11" fill="#0d9488">verify</text>

  <text x="450" y="502" text-anchor="middle" font-size="12.5" fill="#475569">A <tspan font-weight="700" fill="#0f172a">canon</tspan> is one pattern doc (every claim cited to file:line). The gates route to the right canon at the right moment.</text>
</svg>
